<svg
  xmlns="http://www.w3.org/2000/svg"
  viewBox="0 0 24 24"
  width="24"
  height="24"
  fill="#ffffff"
>
  <path d="M12 0c-.9 0-1.7.4-2.3 1.1-.5.7-.8 1.5-.8 2.4l.3 4-6.6-2.9-1.8 1.8 3.5 5.1-4.6 1.9-.6 2.6 5.5 1.5-2.1 4.6 1.8 1.8 5.1-3.5 1.5 5.5 2.6-.6 1.9-4.6 5.1 3.5 1.8-1.8-2.9-6.6 4 .3c.9.1 1.7-.2 2.4-.8.7-.5 1.1-1.4 1.1-2.3s-.4-1.7-1.1-2.3c-.6-.5-1.5-.8-2.4-.8l-4 .3-2.6-6.6c-.1-.2-.2-.3-.4-.5-.2-.2-.3-.3-.5-.4l-6.6-2.6.3-4c.1-.9-.2-1.7-.8-2.3-.5-.7-1.4-1.1-2.3-1.1zm-.4 15.5c.4.4.9.6 1.4.6s1-.2 1.4-.6c.4-.4.6-.9.6-1.4s-.2-1-.6-1.4c-.4-.4-.9-.6-1.4-.6s-1 .2-1.4.6c-.4.4-.6.9-.6 1.4s.2 1 .6 1.4z"/>
</svg>
